<svg width="622" height="612" viewBox="0 0 622 612" fill="none" xmlns="http://www.w3.org/2000/svg">
<path d="M0 33C0 14.7746 14.7746 0 33 0H588C606.225 0 621 14.7746 621 33V579C621 597.225 606.225 612 588 612H33C14.7746 612 0 597.225 0 579V33Z" fill="url(#paint0_linear_15_2)"/>
<path d="M160.413 180.39C57.4334 179.61 0 291.219 0 291.219V582C0 596.5 14.5 612 33.5 612H588C600.5 612 620.5 603.5 621 581C621.5 558.5 621 261.703 621 132C570 132 497.5 320.878 397.097 320.878C296.693 320.878 263.393 181.171 160.413 180.39Z" fill="url(#paint1_linear_15_2)"/>
<defs>
<linearGradient id="paint0_linear_15_2" x1="621.222" y1="107.5" x2="3.11605e-06" y2="107.5" gradientUnits="userSpaceOnUse">
<stop stop-color="#E6C46E"/>
<stop offset="1" stop-color="#DD7760"/>
</linearGradient>
<linearGradient id="paint1_linear_15_2" x1="6.24122" y1="416.097" x2="621" y2="425.455" gradientUnits="userSpaceOnUse">
<stop stop-color="#456ABA"/>
<stop offset="1" stop-color="#82C8C6"/>
</linearGradient>
</defs>
</svg>
