<svg width="134" height="134" viewBox="0 0 134 134" fill="none" xmlns="http://www.w3.org/2000/svg">
<circle cx="67" cy="67" r="67" fill="url(#paint0_linear_32_140)"/>
<path fill-rule="evenodd" clip-rule="evenodd" d="M89.9723 57.7607C91.1847 55.8664 92 53.128 92 50C92 48.8954 92.8954 48 94 48C95.1046 48 96 48.8954 96 50C96 53.7756 95.0244 57.2872 93.3414 59.9169C91.6727 62.5243 89.1246 64.5 86 64.5C82.8754 64.5 80.3273 62.5243 78.6586 59.9169C76.9756 57.2872 76 53.7756 76 50C76 48.8954 76.8954 48 78 48C79.1046 48 80 48.8954 80 50C80 53.128 80.8153 55.8664 82.0277 57.7607C83.2544 59.6775 84.7064 60.5 86 60.5C87.2936 60.5 88.7456 59.6775 89.9723 57.7607Z" fill="#515151"/>
<path fill-rule="evenodd" clip-rule="evenodd" d="M53.9723 57.7607C55.1847 55.8664 56 53.128 56 50C56 48.8954 56.8954 48 58 48C59.1046 48 60 48.8954 60 50C60 53.7756 59.0244 57.2872 57.3414 59.9169C55.6727 62.5243 53.1246 64.5 50 64.5C46.8754 64.5 44.3273 62.5243 42.6586 59.9169C40.9756 57.2872 40 53.7756 40 50C40 48.8954 40.8954 48 42 48C43.1046 48 44 48.8954 44 50C44 53.128 44.8153 55.8664 46.0277 57.7607C47.2544 59.6775 48.7064 60.5 50 60.5C51.2936 60.5 52.7456 59.6775 53.9723 57.7607Z" fill="#515151"/>
<path fill-rule="evenodd" clip-rule="evenodd" d="M98.9921 102.831C97.4285 103.379 95.7168 102.556 95.1689 100.992C90.7153 88.2808 77.9857 83 67.0002 83C61.6776 83 55.4964 84.5924 50.1873 87.6982C44.8884 90.7979 40.6695 95.2722 38.8565 100.917C38.3498 102.495 36.6603 103.363 35.0828 102.856C33.5053 102.35 32.6372 100.66 33.1439 99.0826C35.52 91.6843 40.9362 86.1586 47.1577 82.5192C53.3688 78.8859 60.593 77 67.0002 77C79.4741 77 95.231 83.0236 100.831 99.008C101.379 100.572 100.556 102.283 98.9921 102.831Z" fill="#515151"/>
<path d="M27.7271 76.4078C28.19 72.9385 34.0718 66.6612 34.0718 66.6612C34.0718 66.6612 37.2432 73.1375 36.6481 77.598C36.053 82.0585 34.4339 82.8513 31.9559 82.5207C29.4778 82.1901 27.2643 79.877 27.7271 76.4078Z" fill="#43949A"/>
<defs>
<linearGradient id="paint0_linear_32_140" x1="67" y1="0" x2="67" y2="134" gradientUnits="userSpaceOnUse">
<stop stop-color="#E6C46E"/>
<stop offset="1" stop-color="#F2C248"/>
</linearGradient>
</defs>
</svg>
