<svg width="134" height="134" viewBox="0 0 134 134" fill="none" xmlns="http://www.w3.org/2000/svg">
<circle cx="67" cy="67" r="67" fill="url(#paint0_linear_32_141)"/>
<ellipse cx="49" cy="50.5" rx="8" ry="12.5" fill="#515151"/>
<ellipse cx="85" cy="50.5" rx="8" ry="12.5" fill="#515151"/>
<path fill-rule="evenodd" clip-rule="evenodd" d="M100.4 96.8C99.4057 98.1255 97.5253 98.3941 96.1998 97.4C88.7256 91.7943 78.0886 88 66.9998 88C55.7813 88 46.714 90.3637 37.8588 97.3546C36.5583 98.3813 34.6718 98.1594 33.6452 96.8589C32.6185 95.5585 32.8405 93.672 34.1409 92.6454C44.2857 84.6363 54.7588 82 66.9998 82C79.3705 82 91.2741 86.2057 99.7998 92.6C101.125 93.5941 101.394 95.4745 100.4 96.8Z" fill="#515151"/>
<defs>
<linearGradient id="paint0_linear_32_141" x1="67" y1="0" x2="67" y2="134" gradientUnits="userSpaceOnUse">
<stop stop-color="#E6C46E"/>
<stop offset="1" stop-color="#F2C248"/>
</linearGradient>
</defs>
</svg>
