<svg width="134" height="134" viewBox="0 0 134 134" fill="none" xmlns="http://www.w3.org/2000/svg">
<circle cx="67" cy="67" r="67" fill="url(#paint0_linear_32_144)"/>
<path fill-rule="evenodd" clip-rule="evenodd" d="M45.0277 42.7393C43.8153 44.6336 43 47.372 43 50.5C43 51.6046 42.1046 52.5 41 52.5C39.8954 52.5 39 51.6046 39 50.5C39 46.7244 39.9756 43.2128 41.6586 40.5831C43.3273 37.9757 45.8754 36 49 36C52.1246 36 54.6727 37.9757 56.3414 40.5831C58.0244 43.2128 59 46.7244 59 50.5C59 51.6046 58.1046 52.5 57 52.5C55.8954 52.5 55 51.6046 55 50.5C55 47.372 54.1847 44.6336 52.9723 42.7393C51.7456 40.8225 50.2936 40 49 40C47.7064 40 46.2544 40.8225 45.0277 42.7393Z" fill="#515151"/>
<path fill-rule="evenodd" clip-rule="evenodd" d="M81.0277 42.7393C79.8153 44.6336 79 47.372 79 50.5C79 51.6046 78.1046 52.5 77 52.5C75.8954 52.5 75 51.6046 75 50.5C75 46.7244 75.9756 43.2128 77.6586 40.5831C79.3273 37.9757 81.8754 36 85 36C88.1246 36 90.6727 37.9757 92.3414 40.5831C94.0244 43.2128 95 46.7244 95 50.5C95 51.6046 94.1046 52.5 93 52.5C91.8954 52.5 91 51.6046 91 50.5C91 47.372 90.1847 44.6336 88.9723 42.7393C87.7456 40.8225 86.2936 40 85 40C83.7064 40 82.2544 40.8225 81.0277 42.7393Z" fill="#515151"/>
<path d="M67 100C87.5 100 100.811 86.0435 105 73H29C34.027 87.3478 46.5 100 67 100Z" fill="#D9D9D9"/>
<path fill-rule="evenodd" clip-rule="evenodd" d="M105 73H29C29.7165 75.045 30.5843 77.0556 31.605 79C37.7457 90.6975 49.4219 100 67 100C84.3624 100 96.5678 89.9888 102.442 79C103.504 77.0142 104.359 74.9964 105 73ZM95.4607 79H38.5322C44.0797 87.6425 53.4396 94 67 94C80.3067 94 90.0244 87.1285 95.4607 79Z" fill="#515151"/>
<defs>
<linearGradient id="paint0_linear_32_144" x1="67" y1="0" x2="67" y2="134" gradientUnits="userSpaceOnUse">
<stop stop-color="#E6C46E"/>
<stop offset="1" stop-color="#F2C248"/>
</linearGradient>
</defs>
</svg>
