<svg width="840" height="47" viewBox="0 0 840 47" fill="none" xmlns="http://www.w3.org/2000/svg">
<path d="M0.976231 46L9.64823 1.2H12.9122L25.4562 34.16L37.9362 1.2H41.2002L49.9042 46H45.3282L38.7042 11.728L26.8642 43.056H23.9842L12.1442 11.728L5.52023 46H0.976231ZM135.656 46.832C132.627 46.832 129.779 46.2347 127.112 45.04C124.446 43.824 122.099 42.1493 120.072 40.016C118.046 37.8827 116.456 35.4187 115.304 32.624C114.152 29.808 113.576 26.8 113.576 23.6C113.576 20.4 114.152 17.4027 115.304 14.608C116.456 11.792 118.046 9.31733 120.072 7.184C122.099 5.05066 124.446 3.38666 127.112 2.192C129.779 0.975997 132.627 0.367996 135.656 0.367996C138.707 0.367996 141.566 0.975997 144.232 2.192C146.899 3.38666 149.246 5.05066 151.272 7.184C153.299 9.31733 154.878 11.792 156.008 14.608C157.16 17.4027 157.736 20.4 157.736 23.6C157.736 26.8 157.16 29.808 156.008 32.624C154.878 35.4187 153.299 37.8827 151.272 40.016C149.246 42.1493 146.899 43.824 144.232 45.04C141.566 46.2347 138.707 46.832 135.656 46.832ZM135.656 42.352C138.11 42.352 140.392 41.8613 142.504 40.88C144.638 39.8773 146.504 38.512 148.104 36.784C149.726 35.056 150.984 33.0613 151.88 30.8C152.798 28.5387 153.256 26.1387 153.256 23.6C153.256 21.04 152.798 18.6293 151.88 16.368C150.963 14.0853 149.694 12.0907 148.072 10.384C146.472 8.656 144.606 7.30133 142.472 6.32C140.36 5.33867 138.088 4.848 135.656 4.848C133.203 4.848 130.91 5.34933 128.776 6.352C126.664 7.33333 124.798 8.688 123.176 10.416C121.576 12.144 120.318 14.1387 119.4 16.4C118.504 18.6613 118.056 21.0613 118.056 23.6C118.056 26.1813 118.515 28.6027 119.432 30.864C120.35 33.1253 121.608 35.12 123.208 36.848C124.83 38.576 126.696 39.9307 128.808 40.912C130.942 41.872 133.224 42.352 135.656 42.352ZM243.536 46.832C240.507 46.832 237.659 46.2347 234.992 45.04C232.326 43.824 229.979 42.1493 227.952 40.016C225.926 37.8827 224.336 35.4187 223.184 32.624C222.032 29.808 221.456 26.8 221.456 23.6C221.456 20.4 222.032 17.4027 223.184 14.608C224.336 11.792 225.926 9.31733 227.952 7.184C229.979 5.05066 232.326 3.38666 234.992 2.192C237.659 0.975997 240.507 0.367996 243.536 0.367996C246.587 0.367996 249.446 0.975997 252.112 2.192C254.779 3.38666 257.126 5.05066 259.152 7.184C261.179 9.31733 262.758 11.792 263.888 14.608C265.04 17.4027 265.616 20.4 265.616 23.6C265.616 26.8 265.04 29.808 263.888 32.624C262.758 35.4187 261.179 37.8827 259.152 40.016C257.126 42.1493 254.779 43.824 252.112 45.04C249.446 46.2347 246.587 46.832 243.536 46.832ZM243.536 42.352C245.99 42.352 248.272 41.8613 250.384 40.88C252.518 39.8773 254.384 38.512 255.984 36.784C257.606 35.056 258.864 33.0613 259.76 30.8C260.678 28.5387 261.136 26.1387 261.136 23.6C261.136 21.04 260.678 18.6293 259.76 16.368C258.843 14.0853 257.574 12.0907 255.952 10.384C254.352 8.656 252.486 7.30133 250.352 6.32C248.24 5.33867 245.968 4.848 243.536 4.848C241.083 4.848 238.79 5.34933 236.656 6.352C234.544 7.33333 232.678 8.688 231.056 10.416C229.456 12.144 228.198 14.1387 227.28 16.4C226.384 18.6613 225.936 21.0613 225.936 23.6C225.936 26.1813 226.395 28.6027 227.312 30.864C228.23 33.1253 229.488 35.12 231.088 36.848C232.71 38.576 234.576 39.9307 236.688 40.912C238.822 41.872 241.104 42.352 243.536 42.352ZM330.991 46V1.2H345.807C348.901 1.2 351.802 1.78666 354.511 2.96C357.221 4.112 359.599 5.72267 361.647 7.792C363.695 9.84 365.295 12.2187 366.447 14.928C367.621 17.616 368.207 20.5067 368.207 23.6C368.207 26.6933 367.621 29.5947 366.447 32.304C365.295 34.992 363.695 37.3707 361.647 39.44C359.599 41.488 357.221 43.0987 354.511 44.272C351.802 45.424 348.901 46 345.807 46H330.991ZM335.471 41.52H345.807C348.282 41.52 350.597 41.0613 352.751 40.144C354.927 39.2053 356.837 37.9147 358.479 36.272C360.122 34.6293 361.402 32.7307 362.319 30.576C363.258 28.4 363.727 26.0747 363.727 23.6C363.727 21.1253 363.258 18.8107 362.319 16.656C361.402 14.48 360.111 12.5707 358.447 10.928C356.805 9.28533 354.906 8.00533 352.751 7.088C350.597 6.14933 348.282 5.68 345.807 5.68H335.471V41.52ZM432.996 46V1.2H437.476V41.52H458.052V46H432.996ZM547.27 1.2H552.55L537.446 25.712V46H532.966V25.712L517.894 1.2H523.174L535.206 20.816L547.27 1.2ZM615.914 46V41.52L646.154 5.68H615.914V1.2H652.138V5.68L621.898 41.52H652.138V46H615.914ZM717.386 46V1.2H744.65V5.68H721.866V19.76H740.714V24.24H721.866V41.52H744.65V46H717.386ZM811.016 46V1.2H826.216C828.606 1.2 830.76 1.78666 832.68 2.96C834.6 4.112 836.126 5.68 837.256 7.664C838.387 9.62666 838.952 11.8347 838.952 14.288C838.952 16.4853 838.504 18.48 837.608 20.272C836.712 22.064 835.486 23.5467 833.928 24.72C832.392 25.8933 830.654 26.672 828.712 27.056L839.656 46H834.472L823.688 27.408H815.496V46H811.016ZM815.496 22.928H825.832C827.411 22.928 828.851 22.544 830.152 21.776C831.475 20.9867 832.52 19.9307 833.288 18.608C834.078 17.264 834.472 15.7493 834.472 14.064C834.472 12.3787 834.078 10.8747 833.288 9.552C832.52 8.208 831.475 7.152 830.152 6.384C828.851 5.59466 827.411 5.2 825.832 5.2H815.496V22.928Z" fill="#B39F9F"/>
</svg>
